# xmcd CD database file
#
# Track frame offsets:
#	150
#	12117
#	27037
#	39800
#	51280
#	63725
#	74312
#	89105
#	99742
#	111395
#	122720
#	135910
#	147627
#	160320
#	168562
#	182012
#
# Disc length: 2604 seconds
#
# Revision: 0
# Processed by: cddbd v1.4PL0 Copyright (c) Steve Scherf et al.
# Submitted via: CDex 1.51
#
DISCID=e40a2a10
DTITLE=Tom Jones - Country Collection
DYEAR=1900
DGENRE=Country
TTITLE0=the most beautiful girl in the world
TTITLE1=i can't stop loving you
TTITLE2=behind closed doors
TTITLE3=green green grass of home
TTITLE4=let your love flow
TTITLE5=rose coloured glasses
TTITLE6=help me make it through the night
TTITLE7=please release me
TTITLE8=you win again
TTITLE9=i'm leaving it all up to you
TTITLE10=he stopped loving her today
TTITLE11=make the world go away
TTITLE12=born to lose
TTITLE13=i love a rainy night
TTITLE14=i'll be looking for you (it'll be me)
TTITLE15=i wish i was 18 again
EXTD=
EXTT0=
EXTT1=
EXTT2=
EXTT3=
EXTT4=
EXTT5=
EXTT6=
EXTT7=
EXTT8=
EXTT9=
EXTT10=
EXTT11=
EXTT12=
EXTT13=
EXTT14=
EXTT15=
PLAYORDER=
